<svg width="24" height="24" viewBox="0 0 24 24" fill="none" xmlns="http://www.w3.org/2000/svg">
<g clip-path="url(#clip0)">
<path d="M21.9256 3.9375H2.07422C0.930542 3.9375 0 4.86804 0 6.0119V17.974C0 19.1179 0.930542 20.0484 2.07422 20.0484H21.9256C23.0695 20.0484 24 19.1179 24 17.974V6.0119C24 4.86804 23.0695 3.9375 21.9256 3.9375V3.9375ZM23.2872 17.974C23.2872 18.7247 22.6763 19.3356 21.9256 19.3356H2.07422C1.32367 19.3356 0.71283 18.7247 0.71283 17.974V6.0119C0.71283 5.26117 1.32367 4.65033 2.07422 4.65033H21.9256C22.6763 4.65033 23.2872 5.26117 23.2872 6.0119V17.974Z" fill="#A1A1A1"/>
<path d="M10.6694 6.78906H2.40015C2.20331 6.78906 2.04364 6.94855 2.04364 7.14557V8.00085C2.04364 8.19769 2.20331 8.35718 2.40015 8.35718C2.59698 8.35718 2.75665 8.19769 2.75665 8.00085V7.50189H10.313V16.199H2.75665V9.4267C2.75665 9.22986 2.59698 9.07019 2.40015 9.07019C2.20331 9.07019 2.04364 9.22986 2.04364 9.4267V16.5554C2.04364 16.7522 2.20331 16.9119 2.40015 16.9119H10.6694C10.8662 16.9119 11.0259 16.7522 11.0259 16.5554V7.14557C11.0259 6.94855 10.8662 6.78906 10.6694 6.78906Z" fill="#A1A1A1"/>
<path d="M21.6953 7.61548H12.7606C12.5638 7.61548 12.4041 7.77515 12.4041 7.97198C12.4041 8.16882 12.5638 8.32831 12.7606 8.32831H21.6953C21.8921 8.32831 22.0516 8.16882 22.0516 7.97198C22.0516 7.77515 21.8921 7.61548 21.6953 7.61548Z" fill="#A1A1A1"/>
<path d="M21.6952 10.2012H19.6992C19.5023 10.2012 19.3429 10.3607 19.3429 10.5575C19.3429 10.7543 19.5023 10.914 19.6992 10.914H21.6952C21.8921 10.914 22.0515 10.7543 22.0515 10.5575C22.0515 10.3607 21.8921 10.2012 21.6952 10.2012Z" fill="#A1A1A1"/>
<path d="M12.7606 10.914H18.2734C18.4702 10.914 18.6299 10.7543 18.6299 10.5575C18.6299 10.3607 18.4702 10.2012 18.2734 10.2012H12.7606C12.5638 10.2012 12.4041 10.3607 12.4041 10.5575C12.4041 10.7543 12.5638 10.914 12.7606 10.914Z" fill="#A1A1A1"/>
<path d="M21.6953 12.7869H12.7606C12.5638 12.7869 12.4041 12.9464 12.4041 13.1432C12.4041 13.34 12.5638 13.4997 12.7606 13.4997H21.6953C21.8921 13.4997 22.0516 13.34 22.0516 13.1432C22.0516 12.9464 21.8921 12.7869 21.6953 12.7869Z" fill="#A1A1A1"/>
<path d="M17.6082 15.3724H12.7606C12.5638 15.3724 12.4041 15.5319 12.4041 15.7288C12.4041 15.9256 12.5638 16.0853 12.7606 16.0853H17.6082C17.805 16.0853 17.9645 15.9256 17.9645 15.7288C17.9645 15.5319 17.805 15.3724 17.6082 15.3724Z" fill="#A1A1A1"/>
<path d="M4.03967 15.4147C4.03967 15.6115 4.19934 15.771 4.39618 15.771C4.59302 15.771 4.75269 15.6115 4.75269 15.4147C4.75269 14.4319 5.55212 13.6325 6.53485 13.6325C7.51758 13.6325 8.31702 14.4319 8.31702 15.4147C8.31702 15.6115 8.4765 15.771 8.67334 15.771C8.87018 15.771 9.02985 15.6115 9.02985 15.4147C9.02985 14.5079 8.5437 13.7129 7.81842 13.276C8.5437 12.8391 9.02985 12.0441 9.02985 11.1373C9.02985 9.76166 7.91052 8.64233 6.53485 8.64233C5.159 8.64233 4.03967 9.76166 4.03967 11.1373C4.03967 12.0441 4.526 12.8391 5.25128 13.276C4.526 13.7129 4.03967 14.5079 4.03967 15.4147ZM4.75269 11.1373C4.75269 10.1546 5.55212 9.35516 6.53485 9.35516C7.51758 9.35516 8.31702 10.1546 8.31702 11.1373C8.31702 12.1201 7.51758 12.9195 6.53485 12.9195C5.55212 12.9195 4.75269 12.1201 4.75269 11.1373Z" fill="#A1A1A1"/>
</g>
<defs>
<clipPath id="clip0">
<rect width="24" height="24" fill="white"/>
</clipPath>
</defs>
</svg>
