<svg width="24" height="24" viewBox="0 0 24 24" fill="none" xmlns="http://www.w3.org/2000/svg">
<path d="M19.1111 8.93911V6.44444C19.1111 2.89111 15.9209 0 12 0C8.07912 0 4.8889 2.89111 4.8889 6.44444V8.93911C3.37734 9.19956 2.22223 10.5169 2.22223 12.1022V20.7876C2.22223 22.5587 3.66356 24 5.43512 24H18.5649C20.3365 24 21.7778 22.5587 21.7778 20.7871V12.1018C21.7778 10.5169 20.6227 9.19956 19.1111 8.93911ZM5.77778 6.44444C5.77778 3.38089 8.5689 0.888889 12 0.888889C15.4311 0.888889 18.2222 3.38089 18.2222 6.44444V8.88889H5.77778V6.44444ZM20.8889 20.7871C20.8889 22.0684 19.8462 23.1111 18.5649 23.1111H5.43512C4.15378 23.1111 3.11112 22.0684 3.11112 20.7871V12.1018C3.11112 10.8204 4.15378 9.77778 5.43512 9.77778H18.5649C19.8462 9.77778 20.8889 10.8204 20.8889 12.1018V20.7871Z" fill="#A1A1A1"/>
<path d="M12 12.4443C11.0196 12.4443 10.2222 13.2417 10.2222 14.2221V16.8888C10.2222 17.8692 11.0196 18.6666 12 18.6666C12.9805 18.6666 13.7778 17.8692 13.7778 16.8888V14.2221C13.7778 13.2417 12.9805 12.4443 12 12.4443ZM12.8889 16.8888C12.8889 17.379 12.4902 17.7777 12 17.7777C11.5098 17.7777 11.1111 17.379 11.1111 16.8888V14.2221C11.1111 13.7319 11.5098 13.3332 12 13.3332C12.4902 13.3332 12.8889 13.7319 12.8889 14.2221V16.8888Z" fill="#A1A1A1"/>
</svg>
