<svg width="24" height="24" viewBox="0 0 24 24" fill="none" xmlns="http://www.w3.org/2000/svg">
<path d="M19.4317 16.6465C19.3365 16.6465 19.2413 16.6117 19.167 16.5413L14.714 12.3638C14.5585 12.2183 14.5507 11.973 14.697 11.8174C14.8433 11.6603 15.087 11.6534 15.2441 11.8004L19.6971 15.9779C19.8527 16.1234 19.8604 16.3687 19.7141 16.5243C19.6375 16.6055 19.5354 16.6465 19.4317 16.6465Z" fill="#A1A1A1"/>
<path d="M4.56751 16.6468C4.46458 16.6468 4.36165 16.6057 4.28504 16.5245C4.13877 16.3689 4.14651 16.1236 4.30206 15.9781L8.75659 11.8006C8.91292 11.6551 9.15825 11.6613 9.30374 11.8177C9.45 11.9732 9.44226 12.2185 9.28671 12.364L4.83218 16.5415C4.75788 16.6119 4.6627 16.6468 4.56751 16.6468Z" fill="#A1A1A1"/>
<path d="M22.0653 20.5307H1.93474C0.868309 20.5307 0 19.6631 0 18.5959V5.40336C0 4.33616 0.868309 3.46863 1.93474 3.46863H22.0653C23.1317 3.46863 24 4.33616 24 5.40336V18.5959C24 19.6631 23.1317 20.5307 22.0653 20.5307ZM1.93474 4.24252C1.29472 4.24252 0.773894 4.76335 0.773894 5.40336V18.5959C0.773894 19.2359 1.29472 19.7568 1.93474 19.7568H22.0653C22.7053 19.7568 23.2261 19.2359 23.2261 18.5959V5.40336C23.2261 4.76335 22.7053 4.24252 22.0653 4.24252H1.93474Z" fill="#A1A1A1"/>
<path d="M12 13.944C11.4854 13.944 10.9708 13.773 10.5792 13.4317L0.642374 4.7633C0.481404 4.62323 0.464378 4.37867 0.604453 4.21693C0.746075 4.05596 0.989852 4.04126 1.15082 4.17978L11.0876 12.8474C11.5821 13.2785 12.4179 13.2785 12.9117 12.8474L22.8361 4.19371C22.9963 4.05364 23.2401 4.06912 23.3825 4.23086C23.5226 4.3926 23.5063 4.63638 23.3453 4.77723L13.4209 13.4309C13.0285 13.773 12.5147 13.944 12 13.944Z" fill="#A1A1A1"/>
</svg>
