<svg width="24" height="24" viewBox="0 0 24 24" fill="none" xmlns="http://www.w3.org/2000/svg">
<path d="M19.0174 0H18.214H15.4076H3.38037V6.81825V14.8364V21.6475H4.98401V24L6.58764 22.9312L8.19128 24V21.6475H15.4076H18.214H19.0174C19.9006 21.6475 20.6194 20.9286 20.6194 20.0454V14.8364V6.81825V1.60203C20.6194 0.718829 19.9006 0 19.0174 0ZM4.18219 0.801817H15.4076V6.81825H4.18219V0.801817ZM15.4076 14.0346H4.18219V7.62007H15.4076V14.0346ZM7.38946 22.5022L6.58764 21.9674L5.78582 22.5022V21.6475H7.38946V22.5022ZM8.19128 20.8456H4.98401H4.18219V14.8364H15.4076V20.8456H8.19128ZM16.2094 20.8456V14.8364V6.81825V0.801817H17.4122V6.81825V14.8364V20.8456H16.2094ZM18.214 7.62007H19.8176V14.0346H18.214V7.62007ZM19.8176 20.0454C19.8176 20.4868 19.4584 20.8456 19.0174 20.8456H18.214V14.8364H19.8176V20.0454ZM18.214 6.81825V0.801817H19.0174C19.4588 0.801817 19.8176 1.16103 19.8176 1.60203V6.81825H18.214Z" fill="#A1A1A1"/>
</svg>
