<svg width="24" height="24" viewBox="0 0 24 24" fill="none" xmlns="http://www.w3.org/2000/svg">
<path d="M12.0782 5.25964C10.3868 5.25964 9.01007 6.63634 9.01007 8.32774C9.01007 10.0191 10.3868 11.3958 12.0782 11.3958C13.7696 11.3958 15.1463 10.0191 15.1463 8.32774C15.1463 6.63634 13.7696 5.25964 12.0782 5.25964ZM12.0782 10.5192C10.8698 10.5192 9.88667 9.53614 9.88667 8.32774C9.88667 7.11935 10.8698 6.13624 12.0782 6.13624C13.2866 6.13624 14.2697 7.11935 14.2697 8.32774C14.2697 9.53614 13.2866 10.5192 12.0782 10.5192Z" fill="#A1A1A1"/>
<path d="M17.944 2.46193C16.3565 0.874409 14.2456 0 12.0006 0C9.75522 0 7.6448 0.874409 6.05728 2.46193C3.11936 5.39942 2.75425 10.9264 5.26659 14.275L12.0006 24L18.7246 14.2886C21.247 10.9264 20.8819 5.39942 17.944 2.46193ZM18.0137 13.7762L12.0006 22.4598L5.97795 13.7626C3.69923 10.7243 4.02576 5.73297 6.67748 3.08169C8.09932 1.65984 9.98971 0.8766 12.0006 0.8766C14.0116 0.8766 15.9019 1.65984 17.3242 3.08169C19.9759 5.73297 20.3025 10.7243 18.0137 13.7762Z" fill="#A1A1A1"/>
</svg>
