<svg width="24" height="24" viewBox="0 0 24 24" fill="none" xmlns="http://www.w3.org/2000/svg">
<path d="M12 10.4C13.544 10.4 14.8 9.14365 14.8 7.60005C14.8 6.05645 13.544 4.80005 12 4.80005C10.456 4.80005 9.20001 6.05645 9.20001 7.60005C9.20001 9.14365 10.456 10.4 12 10.4ZM12 5.60005C13.1028 5.60005 14 6.49725 14 7.60005C14 8.70285 13.1028 9.60005 12 9.60005C10.8972 9.60005 10 8.70285 10 7.60005C10 6.49725 10.8972 5.60005 12 5.60005Z" fill="#A1A1A1"/>
<path d="M11.9292 21.9028L18.0656 13.04C20.3672 9.9716 20.0344 4.928 17.3532 2.2472C15.9044 0.798 13.978 0 11.9292 0C9.88038 0 7.95398 0.798 6.50518 2.2468C3.82398 4.9276 3.49118 9.9712 5.78358 13.0276L11.9292 21.9028ZM7.07078 2.8124C8.36878 1.5148 10.094 0.8 11.9292 0.8C13.7644 0.8 15.4896 1.5148 16.7876 2.8124C19.2076 5.232 19.5056 9.7872 17.4168 12.572L11.9292 20.4972L6.43278 12.56C4.35278 9.7872 4.65118 5.232 7.07078 2.8124Z" fill="#A1A1A1"/>
<path d="M16.8468 17.2028C16.6268 17.176 16.4284 17.3336 16.4028 17.5532C16.3772 17.7728 16.534 17.9716 16.7532 17.9972C20.9596 18.4924 23.2 19.8268 23.2 20.6C23.2 21.6856 18.9392 23.2 12 23.2C5.0608 23.2 0.8 21.6856 0.8 20.6C0.8 19.8268 3.0404 18.4924 7.2468 17.9972C7.466 17.9716 7.6228 17.7724 7.5972 17.5532C7.5712 17.3336 7.3728 17.1752 7.1532 17.2028C2.9416 17.6988 0 19.0956 0 20.6C0 22.2896 4.122 24 12 24C19.878 24 24 22.2896 24 20.6C24 19.0956 21.0584 17.6988 16.8468 17.2028Z" fill="#A1A1A1"/>
</svg>
