<svg width="24" height="24" viewBox="0 0 24 24" fill="none" xmlns="http://www.w3.org/2000/svg">
<g clip-path="url(#clip0)">
<path d="M23.6832 0.117182C23.5268 -0.0392234 23.274 -0.0392234 23.1175 0.117182L21.6347 1.60003H12.3212L0.612799 13.4048C0.34639 13.6712 0.199585 14.026 0.199585 14.4029C0.199585 14.7797 0.34639 15.1345 0.612799 15.4009L8.79947 23.5876C9.07428 23.8624 9.43469 24 9.7959 24C10.1587 24 10.5215 23.8612 10.7995 23.5836L22.2003 11.8748V2.16565L23.6832 0.682801C23.8396 0.526395 23.8396 0.273587 23.6832 0.117182ZM21.4003 11.55L10.2299 23.0219C9.99151 23.2604 9.6035 23.2604 9.36509 23.0219L1.17842 14.8353C0.94001 14.5969 0.94001 14.2089 1.17962 13.9692L12.6548 2.40006H20.8347L18.9014 4.33332C18.585 4.12372 18.207 4.00011 17.8002 4.00011C16.6973 4.00011 15.8001 4.89734 15.8001 6.00018C15.8001 7.10301 16.6973 8.00024 17.8002 8.00024C18.903 8.00024 19.8002 7.10301 19.8002 6.00018C19.8002 5.59336 19.6766 5.21535 19.467 4.89894L21.4003 2.96568V11.55ZM19.0002 6.00018C19.0002 6.6618 18.4618 7.20022 17.8002 7.20022C17.1385 7.20022 16.6001 6.6618 16.6001 6.00018C16.6001 5.33856 17.1385 4.80014 17.8002 4.80014C17.985 4.80014 18.1578 4.84574 18.3142 4.92054L17.5174 5.71737C17.361 5.87377 17.361 6.12658 17.5174 6.28299C17.5954 6.36099 17.6978 6.40019 17.8002 6.40019C17.9026 6.40019 18.005 6.36099 18.083 6.28299L18.8798 5.48616C18.955 5.64257 19.0002 5.81537 19.0002 6.00018Z" fill="#A1A1A1"/>
</g>
<defs>
<clipPath id="clip0">
<rect width="24" height="24" fill="white"/>
</clipPath>
</defs>
</svg>
