<svg width="24" height="24" viewBox="0 0 24 24" fill="none" xmlns="http://www.w3.org/2000/svg">
<g clip-path="url(#clip0)">
<path d="M15.4224 2.96563C15.1812 1.27504 13.7096 0 11.9996 0C10.8999 0 9.85545 0.53068 9.20607 1.42007C9.07343 1.60145 9.11311 1.85589 9.29449 1.98853C9.47528 2.12069 9.73031 2.08149 9.86271 1.89986C10.3598 1.21974 11.1585 0.813598 11.9995 0.813598C13.3073 0.813598 14.4324 1.7882 14.6169 3.0804C14.646 3.28335 14.8201 3.42981 15.0192 3.42981C15.0382 3.42981 15.0577 3.42838 15.0772 3.42576C15.2995 3.39394 15.4541 3.18789 15.4224 2.96563Z" fill="#A1A1A1"/>
<path d="M21.2977 7.51937L20.0773 5.48543C20.0039 5.3628 19.8715 5.28796 19.7285 5.28796H18.5591C18.3345 5.28796 18.1523 5.47018 18.1523 5.6947C18.1523 5.91923 18.3345 6.10144 18.5591 6.10144H19.4983L20.2305 7.32178H3.76892L4.50112 6.10144H4.93193C5.15645 6.10144 5.33867 5.91923 5.33867 5.6947C5.33867 5.47018 5.15645 5.28796 4.93193 5.28796H4.27088C4.12787 5.28796 3.99547 5.3628 3.92205 5.48543L2.70172 7.51937C2.62628 7.64522 2.62449 7.80169 2.69659 7.92921C2.76869 8.05672 2.90384 8.13561 3.05054 8.13561H20.9489C21.0956 8.13561 21.2306 8.05672 21.3028 7.92921C21.375 7.80169 21.3731 7.64498 21.2977 7.51937Z" fill="#A1A1A1"/>
<path d="M19.2701 3.7686C19.2132 3.67672 19.1222 3.61153 19.0171 3.58698L13.4719 2.29002C13.3669 2.26535 13.2563 2.2837 13.1645 2.34043C13.073 2.39739 13.0077 2.48832 12.9831 2.59343L12.5649 4.38104C12.5137 4.59972 12.6496 4.81852 12.8684 4.86953C13.087 4.92077 13.3061 4.78492 13.3571 4.56611L13.6827 3.17476L18.4357 4.28653L17.6888 7.47979C17.6376 7.69847 17.7734 7.91727 17.9922 7.96828C18.0236 7.97555 18.0547 7.97901 18.0854 7.97901C18.2701 7.97901 18.4373 7.85244 18.4808 7.66498L19.3204 4.07571C19.3452 3.97072 19.3271 3.86013 19.2701 3.7686Z" fill="#A1A1A1"/>
<path d="M12.2149 4.73025L11.8443 1.59539C11.8317 1.48826 11.777 1.39041 11.6921 1.32368C11.6072 1.25694 11.5001 1.22643 11.3925 1.23906L4.58889 2.04325C4.36591 2.0697 4.20646 2.27182 4.2328 2.49503L4.85071 7.72353C4.87526 7.93054 5.0508 8.08272 5.25423 8.08272C5.27008 8.08272 5.28641 8.08165 5.30261 8.07986C5.52547 8.05341 5.68492 7.85129 5.65871 7.62808L5.08846 2.80322L11.0842 2.09461L11.4069 4.82547C11.4334 5.04856 11.6345 5.20707 11.8587 5.1818C12.0817 5.15558 12.2411 4.95335 12.2149 4.73025Z" fill="#A1A1A1"/>
<path d="M15.4318 7.57421L14.6244 4.21662C14.5992 4.11187 14.5333 4.02118 14.4414 3.96481C14.3495 3.90892 14.2393 3.8914 14.1338 3.91642L7.58082 5.49237C7.36237 5.54481 7.22794 5.76456 7.28038 5.98301L7.6839 7.66121C7.73634 7.87989 7.95609 8.01444 8.17442 7.96165C8.39286 7.90921 8.52729 7.68945 8.47486 7.47101L8.16632 6.18823L13.9284 4.80272L14.6406 7.76465C14.6853 7.95116 14.8522 8.07629 15.0358 8.07629C15.0674 8.07629 15.0993 8.0726 15.1314 8.06485C15.3499 8.01229 15.4843 7.79266 15.4318 7.57421Z" fill="#A1A1A1"/>
<path d="M21.3556 7.70803C21.3444 7.49185 21.1659 7.32214 20.9492 7.32214H3.05093C2.83427 7.32214 2.65575 7.49173 2.64455 7.70803L1.83095 23.5724C1.82523 23.6837 1.86551 23.7926 1.94226 23.8734C2.01912 23.9541 2.12567 24 2.23721 24H21.7626C21.874 24 21.9807 23.9542 22.0579 23.8734C22.1345 23.7926 22.1748 23.6838 22.1692 23.5724L21.3556 7.70803ZM2.66528 23.1864L3.43717 8.13562H20.5625L21.3344 23.1864H2.66528Z" fill="#A1A1A1"/>
<path d="M15.0509 8.9491C14.3779 8.9491 13.8305 9.49646 13.8305 10.1694C13.8305 10.8424 14.3779 11.3898 15.0509 11.3898C15.7238 11.3898 16.2712 10.8424 16.2712 10.1694C16.2712 9.49646 15.7238 8.9491 15.0509 8.9491ZM15.0509 10.5763C14.8265 10.5763 14.6441 10.3938 14.6441 10.1696C14.6441 9.94527 14.8266 9.76281 15.0509 9.76281C15.2752 9.76281 15.4576 9.94527 15.4576 10.1696C15.4576 10.3938 15.2752 10.5763 15.0509 10.5763Z" fill="#A1A1A1"/>
<path d="M8.94894 8.9491C8.27597 8.9491 7.72861 9.49646 7.72861 10.1694C7.72861 10.8424 8.27597 11.3898 8.94894 11.3898C9.62192 11.3898 10.1693 10.8424 10.1693 10.1694C10.1693 9.49646 9.62192 8.9491 8.94894 8.9491ZM8.94894 10.5763C8.72466 10.5763 8.54221 10.3938 8.54221 10.1696C8.54221 9.94527 8.72466 9.76281 8.94894 9.76281C9.17323 9.76281 9.35568 9.94527 9.35568 10.1696C9.35568 10.3938 9.17323 10.5763 8.94894 10.5763Z" fill="#A1A1A1"/>
<path d="M15.0505 10.1694H15.0191C14.7946 10.1694 14.6124 10.3516 14.6124 10.5762C14.6124 10.6317 14.6234 10.6847 14.6437 10.733V12.8134C14.6437 14.2713 13.4576 15.4575 11.9996 15.4575C10.5417 15.4575 9.35553 14.2714 9.35553 12.8134V10.5763C9.35553 10.3518 9.17332 10.1696 8.94879 10.1696C8.72427 10.1696 8.54205 10.3518 8.54205 10.5763V12.8135C8.54205 14.7201 10.0931 16.2711 11.9996 16.2711C13.9062 16.2711 15.4572 14.7201 15.4572 12.8135V10.5763C15.4572 10.3518 15.275 10.1694 15.0505 10.1694Z" fill="#A1A1A1"/>
</g>
<defs>
<clipPath id="clip0">
<rect width="24" height="24" fill="white"/>
</clipPath>
</defs>
</svg>
