<svg width="44" height="44" viewBox="0 0 44 44" fill="none" xmlns="http://www.w3.org/2000/svg">
<rect width="44" height="44" rx="4" fill="white"/>
<path d="M31.427 21.7687C31.1087 21.7687 30.854 22.0234 30.854 22.3417V27.554C30.854 28.9716 29.6995 30.1219 28.2861 30.1219H15.7139C14.2963 30.1219 13.146 28.9674 13.146 27.554V22.2568C13.146 21.9385 12.8913 21.6838 12.573 21.6838C12.2547 21.6838 12 21.9385 12 22.2568V27.554C12 29.604 13.6681 31.2679 15.7139 31.2679H28.2861C30.3362 31.2679 32 29.5998 32 27.554V22.3417C32 22.0276 31.7453 21.7687 31.427 21.7687Z" fill="black"/>
<path d="M21.5967 26.7177C21.7071 26.8281 21.8556 26.8875 21.9999 26.8875C22.1442 26.8875 22.2928 26.8323 22.4032 26.7177L26.0449 23.076C26.2699 22.851 26.2699 22.4902 26.0449 22.2653C25.82 22.0403 25.4592 22.0403 25.2342 22.2653L22.5729 24.9308V13.3052C22.5729 12.9868 22.3183 12.7322 21.9999 12.7322C21.6816 12.7322 21.4269 12.9868 21.4269 13.3052V24.9308L18.7614 22.2653C18.5364 22.0403 18.1757 22.0403 17.9507 22.2653C17.7257 22.4902 17.7257 22.851 17.9507 23.076L21.5967 26.7177Z" fill="black"/>
</svg>
