<svg width="20" height="20" viewBox="0 0 20 20" fill="none" xmlns="http://www.w3.org/2000/svg">
<path d="M20 3.93129L16.0595 0H11.0948L9.13816 1.95023C4.27305 1.5443 0.350268 4.28121 0.295317 4.32056C0.136136 4.43401 0.0989116 4.65558 0.213068 4.81512C0.282199 4.91155 0.391038 4.96331 0.501649 4.96331C0.572907 4.96331 0.644875 4.94168 0.707271 4.89701C0.75655 4.86191 4.15039 2.49477 8.46457 2.62134L2.12678 8.93856L2.12961 8.9414L0 11.0657L8.91481 20L12.4742 16.4502C13.2052 16.8331 14.0557 17.0213 14.897 17.021C16.1382 17.021 17.3556 16.6175 18.1235 15.8496C20.7353 13.2375 19.6987 10.3722 19.3441 9.59833L19.9996 8.94423V3.93129H20ZM15.7667 0.709044L19.291 4.22555V8.64998L12.3643 15.5539C10.9164 14.5159 10.4758 12.5682 11.126 10.0142C11.1745 9.82451 11.0597 9.6313 10.87 9.58308C10.6796 9.53239 10.4875 9.64938 10.4389 9.83905C9.52104 13.4435 10.7544 15.221 11.8566 16.0598L11.0437 16.8703L3.13256 8.94246L9.4005 2.69082C10.8888 2.86099 12.4604 3.35236 14.0256 4.34538C14.0118 4.42372 14.0015 4.50349 14.0015 4.58574C14.0015 5.35505 14.6272 5.98079 15.3965 5.98079C16.1658 5.98079 16.7919 5.35505 16.7919 4.58574C16.7919 3.81643 16.1658 3.1907 15.3965 3.1907C14.9654 3.1907 14.5843 3.39136 14.3284 3.69979C12.8787 2.79328 11.4259 2.28808 10.0323 2.06119L11.3876 0.709044H15.7667ZM14.824 4.8924C14.9807 5.0101 15.203 4.97855 15.32 4.8215C15.4377 4.66515 15.4058 4.44287 15.2491 4.32552C15.1395 4.24363 15.0296 4.17131 14.9201 4.09437C15.0438 3.97419 15.2115 3.89974 15.3965 3.89974C15.7748 3.89974 16.0829 4.20747 16.0829 4.5861C16.0829 4.96402 15.7752 5.2721 15.3965 5.2721C15.1119 5.2721 14.8676 5.09767 14.7637 4.85021C14.7839 4.86475 14.8041 4.87716 14.824 4.8924ZM1.00259 11.0671L2.63055 9.4434L10.5442 17.3741L8.91623 18.9978L1.00259 11.0671ZM17.6222 15.3483C16.709 16.2609 14.6549 16.6771 13.0028 15.923L18.8081 10.1329C19.1608 11.0107 19.7316 13.2386 17.6222 15.3483Z" fill="#C4C4C4"/>
</svg>
